<mxfile host="app.diagrams.net" modified="2023-03-27T14:59:09.358Z" agent="Mozilla/5.0 (Windows NT 10.0; Win64; x64) AppleWebKit/537.36 (KHTML, like Gecko) Chrome/111.0.0.0 Safari/537.36" version="21.1.0" etag="dyQUDhN0SwIUvDrUw8l_" type="github">
  <diagram name="Сторінка-1" id="FGZ6uZ36H_6Fus4RmTAJ">
    <mxGraphModel>
      <root>
        <mxCell id="0" />
        <mxCell id="1" parent="0" />
      </root>
    </mxGraphModel>
  </diagram>
</mxfile>
